# AST/ASF file generated using VICON BodyLanguage
# -----------------------------------------------
:version 1.10
:name VICON
:units
  mass 1.0
  length 0.45
  angle deg
:documentation
   .ast/.asf automatically generated from VICON data using
   VICON BodyBuilder and BodyLanguage model FoxedUp or BRILLIANT.MOD
:root
   order TX TY TZ RX RY RZ
   axis XYZ
   position 0 0 0  
   orientation 0 0 0 
:bonedata
  begin
     id 1 
     name lhipjoint
     direction 0.671379 -0.66392 0.329334 
     length 2.38647 
     axis 0 0 0  XYZ
  end
  begin
     id 2 
     name lfemur
     direction 0.34202 -0.939693 0  
     length 6.48179  
     axis 0 0 20  XYZ
    dof rx ry rz
    limits (-160.0 20.0)
           (-70.0 70.0)
           (-60.0 70.0)
  end
  begin
     id 3 
     name ltibia
     direction 0.34202 -0.939693 0   
     length 6.86524   
     axis 0 0 20   XYZ
    dof rx
    limits (-10.0 170.0)
  end
  begin
     id 4 
     name lfoot
     direction 0.204886 -0.562919 0.800715   
     length 1.73031   
     axis -90 7.62852e-016 20   XYZ
    dof rx rz
    limits (-45.0 90.0)
           (-70.0 20.0)
  end
  begin
     id 5 
     name ltoes
     direction 1.53548e-011 -4.21841e-011 1   
     length 0.828161   
     axis -90 7.62852e-016 20   XYZ
    dof rx
    limits (-90.0 20.0)
  end
  begin
     id 6 
     name rhipjoint
     direction -0.662732 -0.670855 0.332775   
     length 2.3618  
     axis 0 0 0  XYZ 
  end
  begin
     id 7 
     name rfemur
     direction -0.34202 -0.939693 0   
     length 6.3025   
     axis 0 0 -20   XYZ
    dof rx ry rz
    limits (-160.0 20.0)
           (-70.0 70.0)
           (-70.0 60.0)
  end
  begin
     id 8 
     name rtibia
     direction -0.34202 -0.939693 0   
     length 6.8732   
     axis 0 0 -20   XYZ
    dof rx
    limits (-10.0 170.0)
 end
 begin
     id 9 
     name rfoot
     direction -0.173856 -0.477665 0.861168   
     length 1.54784  
     axis -90 -7.62852e-016 -20   XYZ
    dof rx rz
    limits (-45.0 90.0)
           (-20.0 70.0)
  end
  begin
     id 10 
     name rtoes
     direction -1.53562e-011 -4.21802e-011 1   
     length 0.759618   
     axis -90 -7.62852e-016 -20   XYZ
    dof rx
    limits (-90.0 20.0)
  end
  begin
     id 11 
     name lowerback
     direction -0.0278357 0.999497 -0.0151789   
     length 1.97203   
     axis 0 0 0   XYZ
    dof rx ry rz
    limits (-20.0 45.0)
           (-30.0 30.0)
           (-30.0 30.0)
  end
  begin
     id 12 
     name upperback
     direction -0.00360622 0.997542 0.0699804   
     length 1.94709   
     axis 0 0 0   XYZ
    dof rx ry rz
    limits (-20.0 45.0)
           (-30.0 30.0)
           (-30.0 30.0)
  end
  begin
     id 13 
     name thorax
     direction 0.00907706 0.997048 0.0762461   
     length 1.95722   
     axis 0 0 0   XYZ
    dof rx ry rz
    limits (-20.0 45.0)
           (-30.0 30.0)
           (-30.0 30.0)
  end
  begin
     id 14 
     name lowerneck
     direction -0.0481835 0.99872 -0.0153927   
     length 1.63078   
     axis 0 0 0   XYZ
    dof rx ry rz
    limits (-20.0 45.0)
           (-30.0 30.0)
           (-30.0 30.0)
  end
  begin
     id 15 
     name upperneck
     direction 0.0859716 0.979226 -0.183644   
     length 1.62591   
     axis 0 0 0   XYZ
    dof rx ry rz
    limits (-20.0 45.0)
           (-30.0 30.0)
           (-30.0 30.0)
  end
  begin
     id 16
     name head
     direction 0.0324821 0.997629 -0.0606773  
     length 1.64811  
     axis 0 0 0   XYZ
    dof rx ry rz
    limits (-20.0 45.0)
           (-30.0 30.0)
           (-30.0 30.0)
  end
  begin
     id 17 
     name lclavicle
     direction 0.939609 0.311019 0.142835  
     length 3.70647  
     axis 0 0 0   XYZ
    dof ry rz
    limits (-20.0 10.0)
           (0.0 20.0)
  end
  begin
     id 18 
     name lhumerus
     direction 1 -4.48963e-011 -1.59838e-027   
     length 4.59207   
     axis 180 -30 -90   XYZ
    dof rx ry rz
    limits (-60.0 90.0)
           (-90.0 90.0)
           (-90.0 90.0)
  end
  begin
     id 19
     name lradius
     direction 1 -4.48957e-011 -1.3483e-026   
     length 2.98109   
     axis 180 -30 -90   XYZ
    dof rx
    limits (-10.0 170.0)
  end
  begin
     id 20
     name lwrist
     direction 1 -4.48954e-011 -3.11579e-026   
     length 1.49055   
     axis 2.00652e-014 90 90   XYZ
    dof ry
    limits (-180.0 0.0)
 end
  begin
     id 21 
     name lhand
     direction 1 -4.4911e-011 -6.23158e-026   
     length 0.480203   
     axis 3.97628e-014 90 90   XYZ
    dof rx rz
    limits (-90.0 90.0)
           (-45.0 45.0)
  end
  begin
     id 22 
     name lfingers
     direction 1 -4.48893e-011 -1.24632e-025   
     length 0.387152   
     axis 7.95256e-014 90 90   XYZ
    dof rx
    limits (0.0 90.0)
  end
  begin
     id 23
     name lthumb
     direction 0.707107 -6.35013e-011 0.707107   
     length 0.555875   
     axis -90 45 2.85299e-015   XYZ
    dof rx rz
    limits (-45.0 45.0)
           (-45.0 45.0)
  end
  begin
     id 24 
     name rclavicle
     direction -0.950396 0.30392 0.0661859   
     length 3.70894  
     axis 0 0 0   XYZ 
    dof ry rz
    limits (-10.0 20.0)
           (-20.0 0.0)
  end
  begin
     id 25 
     name rhumerus
     direction -1 -4.48957e-011 -2.96677e-027  
     length 4.76508   
     axis 180 30 90   XYZ
    dof rx ry rz
    limits (-90.0 60.0)
           (-90.0 90.0)
           (-90.0 90.0)
  end
  begin
     id 26 
     name rradius
     direction -1 -4.48974e-011 -1.44501e-026   
     length 2.78902   
     axis 180 30 90   XYZ
    dof rx
    limits (-10.0 170.0)
  end
  begin
     id 27 
     name rwrist
     direction -1 -4.48978e-011 -3.11579e-026   
     length 1.39451   
     axis 2.00652e-014 -90 -90   XYZ
    dof ry
    limits (-180.0 0.0)
  end
  begin
     id 28
     name rhand
     direction -1 -4.48956e-011 -6.23158e-026   
     length 0.721303   
     axis 3.97628e-014 -90 -90   XYZ
    dof rx rz
    limits (-90.0 90.0)
           (-45.0 45.0)
  end
  begin
     id 29
     name rfingers
     direction -1 -4.4899e-011 -1.24632e-025   
     length 0.581533   
     axis 7.95256e-014 -90 -90   XYZ
    dof rx
    limits (0.0 90.0)
  end
  begin
     id 30
     name rthumb
     direction -0.707107 -6.34911e-011 0.707107   
     length 0.834968   
     axis -90 -45 -2.85299e-015   XYZ
    dof rx rz
    limits (-45.0 45.0)
           (-45.0 45.0)
  end
:hierarchy
  begin
    root lhipjoint rhipjoint lowerback
    lhipjoint lfemur
    lfemur ltibia
    ltibia lfoot
    lfoot ltoes
    rhipjoint rfemur
    rfemur rtibia
    rtibia rfoot
    rfoot rtoes
    lowerback upperback
    upperback thorax
    thorax lowerneck lclavicle rclavicle
    lowerneck upperneck
    upperneck head
    lclavicle lhumerus
    lhumerus lradius
    lradius lwrist
    lwrist lhand lthumb
    lhand lfingers
    rclavicle rhumerus
    rhumerus rradius
    rradius rwrist
    rwrist rhand rthumb
    rhand rfingers
  end

#!OML:ASF I:\salsa\salsa 7_09\Patient 1\Session 1\dancerfemale.ASF
:FULLY-SPECIFIED
:DEGREES
776
root 9.14661 15.5753 4.24625 -177.027 -430.227 176.474
lowerback 4.07864 1.02539 2.11425
upperback -5.20859 1.28384 -2.30384
thorax -7.64986 0.392873 -3.74268
lowerneck 9.11078 -10.6911 -15.9775
upperneck 18.4172 -17.513 6.20059
head 6.13633 -9.75313 3.74917
rclavicle 6.01324e-015 -9.54166e-015
rhumerus -47.3824 -13.4492 -84.0591
rradius 47.0693
rwrist -16.7721
rhand 1.56507 57.055
rfingers 7.12502
rthumb 27.0886 28.9784
lclavicle 6.01324e-015 -9.54166e-015
lhumerus -29.3906 41.56 46.2743
lradius 134.212
lwrist -25.9949
lhand -25.163 46.6799
lfingers 7.12502
lthumb 1.35414 436.655
rfemur -9.08218 -7.93992 37.1244
rtibia 37.9681
rfoot -13.1997 -0.0833709
rtoes 1.24823
lfemur -39.0044 14.1621 -33.8216
ltibia 62.6161
lfoot -0.411813 6.71147
ltoes -22.3534
777
root 9.16357 15.5909 4.09251 -174.967 -430.916 174.85
lowerback 3.59049 0.912874 1.23986
upperback -5.4645 1.02517 -2.50929
thorax -7.66999 0.29693 -3.43242
lowerneck 9.1954 -10.8555 -16.0395
upperneck 19.1934 -17.8381 5.94627
head 6.39943 -9.96684 3.63332
rclavicle -3.65764e-014 3.10104e-014
rhumerus -47.596 -12.9344 -84.4975
rradius 46.4268
rwrist -17.5965
rhand 1.27206 57.8202
rfingers 7.12502
rthumb 26.8082 29.7003
lclavicle -3.65764e-014 3.10104e-014
lhumerus -28.3274 40.6687 47.8842
lradius 135.724
lwrist -26.1324
lhand -26.2012 46.5379
lfingers 7.12502
lthumb 0.351392 436.517
rfemur -11.1832 -10.3358 36.2767
rtibia 40.8891
rfoot -12.7056 2.52867
rtoes -9.76312
lfemur -38.5217 12.7846 -33.4289
ltibia 61.5279
lfoot -1.16351 5.46374
ltoes -23.7384
778
root 9.19481 15.5857 3.95164 -172.573 -431.496 172.91
lowerback 3.34085 0.769294 0.445908
upperback -5.78514 0.72706 -2.75902
thorax -7.89696 0.171587 -3.21995
lowerneck 9.28663 -10.9542 -15.9412
upperneck 19.913 -18.0325 5.54669
head 6.60084 -10.1134 3.46368
rclavicle -6.60959e-014 3.18055e-015
rhumerus -47.987 -12.5668 -84.7725
rradius 45.66
rwrist -18.0955
rhand 1.13984 56.9378
rfingers 7.12502
rthumb 26.6817 28.7985
lclavicle -6.60959e-014 3.18055e-015
lhumerus -27.3837 39.7196 49.4724
lradius 137.289
lwrist -26.2764
lhand -26.8432 46.3942
lfingers 7.12502
lthumb -0.268639 436.374
rfemur -13.8008 -13.3031 35.013
rtibia 44.365
rfoot -12.3955 5.50571
rtoes -22.8188
lfemur -38.6782 11.371 -33.2724
ltibia 60.9686
lfoot -1.60081 4.99553
ltoes -24.2553
779
root 9.23688 15.5683 3.80915 -170.348 -431.648 171.13
lowerback 3.19619 0.71687 -0.357666
upperback -6.07171 0.554992 -2.95694
thorax -8.13964 0.114211 -2.96234
lowerneck 9.35626 -11.0491 -15.9672
upperneck 20.3973 -18.2083 5.27474
head 6.75002 -10.2402 3.35605
rclavicle 3.27001e-014 -1.19271e-015
rhumerus -48.3024 -12.3717 -84.7716
rradius 44.6555
rwrist -18.1318
rhand 1.2783 56.8964
rfingers 7.12502
rthumb 26.8142 28.7773
lclavicle 3.27001e-014 -1.19271e-015
lhumerus -26.3261 38.8181 51.1505
lradius 138.796
lwrist -26.4143
lhand -27.0022 46.3627
lfingers 7.12502
lthumb -0.422187 436.342
rfemur -16.6181 -15.718 33.6895
rtibia 48.1234
rfoot -12.088 7.82803
rtoes -36.8219
lfemur -39.207 10.6812 -33.2931
ltibia 60.8021
lfoot -1.8781 5.11752
ltoes -24.5971
780
root 9.28247 15.5448 3.66902 -168.604 -431.626 169.634
lowerback 3.21797 0.668721 -1.08073
upperback -6.26265 0.403831 -3.08313
thorax -8.37391 0.0709522 -2.67818
lowerneck 9.31226 -11.1143 -16.1576
upperneck 20.7812 -18.3279 5.09713
head 6.90273 -10.3363 3.29807
rclavicle 1.63003e-014 -2.82274e-014
rhumerus -48.6482 -12.3759 -84.4571
rradius 43.5063
rwrist -17.765
rhand 1.58479 56.8461
rfingers 7.12502
rthumb 27.1074 28.7723
lclavicle 1.63003e-014 -2.82274e-014
lhumerus -25.1817 37.9623 52.9257
lradius 140.221
lwrist -26.6329
lhand -27.3871 46.4021
lfingers 7.12502
lthumb -0.793969 436.38
rfemur -19.107 -18.2858 32.2269
rtibia 51.9653
rfoot -12.1589 10.0318
rtoes -44.2512
lfemur -39.6904 10.6455 -33.387
ltibia 60.8724
lfoot -2.29593 5.31027
ltoes -24.8466
781
root 9.3311 15.5149 3.53167 -167.573 -431.438 168.694
lowerback 3.26554 0.655945 -1.63563
upperback -6.35553 0.325076 -3.14666
thorax -8.51158 0.0605837 -2.42833
lowerneck 8.8472 -11.1502 -15.529
upperneck 21.3277 -18.094 3.88094
head 6.96519 -10.2488 2.80608
rclavicle 1.39149e-015 -1.90833e-014
rhumerus -49.21 -12.6392 -83.8751
rradius 42.4139
rwrist -17.1659
rhand 2.06226 56.683
rfingers 7.12502
rthumb 27.5641 28.6813
lclavicle 1.39149e-015 -1.90833e-014
lhumerus -23.9457 36.9301 54.9521
lradius 141.594
lwrist -26.9641
lhand -28.446 46.3747
lfingers 7.12502
lthumb -1.81668 436.347
rfemur -20.9351 -19.8623 30.6079
rtibia 55.7287
rfoot -13.598 11.8847
rtoes -40.8572
lfemur -40.0448 10.9988 -33.3192
ltibia 61.0706
lfoot -2.97143 5.37574
ltoes -24.483
